<mxfile host="app.diagrams.net" modified="2025-01-27T10:00:00.000Z" agent="5.0" etag="def456" version="24.7.17" type="device">
  <diagram name="Level1-Component-Interactions" id="level1-interactions">
    <mxGraphModel dx="1422" dy="794" grid="1" gridSize="10" guides="1" tooltips="1" connect="1" arrows="1" fold="1" page="1" pageScale="1" pageWidth="1400" pageHeight="1000" math="0" shadow="0">
      <root>
        <mxCell id="0" />
        <mxCell id="1" parent="0" />
        
        <!-- Title -->
        <mxCell id="title" value="Level 1: Component Interactions &amp; Data Flow" style="text;html=1;strokeColor=none;fillColor=none;align=center;verticalAlign=middle;whiteSpace=wrap;rounded=0;fontSize=20;fontStyle=1;" vertex="1" parent="1">
          <mxGeometry x="500" y="20" width="400" height="30" as="geometry" />
        </mxCell>
        
        <!-- Airflow Components -->
        <mxCell id="airflow-scheduler" value="Airflow Scheduler" style="rounded=1;whiteSpace=wrap;html=1;fillColor=#dae8fc;strokeColor=#6c8ebf;" vertex="1" parent="1">
          <mxGeometry x="50" y="100" width="120" height="60" as="geometry" />
        </mxCell>
        <mxCell id="airflow-webserver" value="Airflow Webserver" style="rounded=1;whiteSpace=wrap;html=1;fillColor=#dae8fc;strokeColor=#6c8ebf;" vertex="1" parent="1">
          <mxGeometry x="50" y="180" width="120" height="60" as="geometry" />
        </mxCell>
        <mxCell id="airflow-dag" value="Training DAG&lt;br&gt;(train_register_deploy)" style="rounded=1;whiteSpace=wrap;html=1;fillColor=#dae8fc;strokeColor=#6c8ebf;" vertex="1" parent="1">
          <mxGeometry x="50" y="260" width="120" height="60" as="geometry" />
        </mxCell>
        
        <!-- MLflow Components -->
        <mxCell id="mlflow-server" value="MLflow Server" style="rounded=1;whiteSpace=wrap;html=1;fillColor=#f8cecc;strokeColor=#b85450;" vertex="1" parent="1">
          <mxGeometry x="250" y="100" width="120" height="60" as="geometry" />
        </mxCell>
        <mxCell id="mlflow-tracking" value="MLflow Tracking" style="rounded=1;whiteSpace=wrap;html=1;fillColor=#f8cecc;strokeColor=#b85450;" vertex="1" parent="1">
          <mxGeometry x="250" y="180" width="120" height="60" as="geometry" />
        </mxCell>
        <mxCell id="mlflow-registry" value="MLflow Registry" style="rounded=1;whiteSpace=wrap;html=1;fillColor=#f8cecc;strokeColor=#b85450;" vertex="1" parent="1">
          <mxGeometry x="250" y="260" width="120" height="60" as="geometry" />
        </mxCell>
        
        <!-- Storage Components -->
        <mxCell id="postgres-mlflow" value="PostgreSQL&lt;br&gt;(MLflow Backend)" style="rounded=1;whiteSpace=wrap;html=1;fillColor=#d5e8d4;strokeColor=#82b366;" vertex="1" parent="1">
          <mxGeometry x="450" y="100" width="120" height="60" as="geometry" />
        </mxCell>
        <mxCell id="minio-artifacts" value="MinIO&lt;br&gt;(Artifact Store)" style="rounded=1;whiteSpace=wrap;html=1;fillColor=#d5e8d4;strokeColor=#82b366;" vertex="1" parent="1">
          <mxGeometry x="450" y="180" width="120" height="60" as="geometry" />
        </mxCell>
        <mxCell id="minio-data" value="MinIO&lt;br&gt;(Data Storage)" style="rounded=1;whiteSpace=wrap;html=1;fillColor=#d5e8d4;strokeColor=#82b366;" vertex="1" parent="1">
          <mxGeometry x="450" y="260" width="120" height="60" as="geometry" />
        </mxCell>
        
        <!-- Model Operations -->
        <mxCell id="training-job" value="Training Job&lt;br&gt;(Containerized)" style="rounded=1;whiteSpace=wrap;html=1;fillColor=#fff2cc;strokeColor=#d6b656;" vertex="1" parent="1">
          <mxGeometry x="650" y="100" width="120" height="60" as="geometry" />
        </mxCell>
        <mxCell id="serving-dev" value="Serving Dev&lt;br&gt;(FastAPI)" style="rounded=1;whiteSpace=wrap;html=1;fillColor=#fff2cc;strokeColor=#d6b656;" vertex="1" parent="1">
          <mxGeometry x="650" y="180" width="120" height="60" as="geometry" />
        </mxCell>
        <mxCell id="serving-prod" value="Serving Prod&lt;br&gt;(FastAPI)" style="rounded=1;whiteSpace=wrap;html=1;fillColor=#fff2cc;strokeColor=#d6b656;" vertex="1" parent="1">
          <mxGeometry x="650" y="260" width="120" height="60" as="geometry" />
        </mxCell>
        <mxCell id="batch-job" value="Batch Job&lt;br&gt;(CronJob)" style="rounded=1;whiteSpace=wrap;html=1;fillColor=#fff2cc;strokeColor=#d6b656;" vertex="1" parent="1">
          <mxGeometry x="650" y="340" width="120" height="60" as="geometry" />
        </mxCell>
        
        <!-- Monitoring Components -->
        <mxCell id="prometheus-server" value="Prometheus&lt;br&gt;(Metrics)" style="rounded=1;whiteSpace=wrap;html=1;fillColor=#e1d5e7;strokeColor=#9673a6;" vertex="1" parent="1">
          <mxGeometry x="850" y="100" width="120" height="60" as="geometry" />
        </mxCell>
        <mxCell id="pushgateway" value="Pushgateway&lt;br&gt;(Batch Metrics)" style="rounded=1;whiteSpace=wrap;html=1;fillColor=#e1d5e7;strokeColor=#9673a6;" vertex="1" parent="1">
          <mxGeometry x="850" y="180" width="120" height="60" as="geometry" />
        </mxCell>
        <mxCell id="grafana-dash" value="Grafana&lt;br&gt;(Dashboards)" style="rounded=1;whiteSpace=wrap;html=1;fillColor=#e1d5e7;strokeColor=#9673a6;" vertex="1" parent="1">
          <mxGeometry x="850" y="260" width="120" height="60" as="geometry" />
        </mxCell>
        <mxCell id="alertmanager" value="AlertManager&lt;br&gt;(Alerts)" style="rounded=1;whiteSpace=wrap;html=1;fillColor=#e1d5e7;strokeColor=#9673a6;" vertex="1" parent="1">
          <mxGeometry x="850" y="340" width="120" height="60" as="geometry" />
        </mxCell>
        
        <!-- External Users -->
        <mxCell id="data-scientist" value="Data Scientist" style="ellipse;whiteSpace=wrap;html=1;fillColor=#f5f5f5;strokeColor=#666666;" vertex="1" parent="1">
          <mxGeometry x="50" y="400" width="100" height="60" as="geometry" />
        </mxCell>
        <mxCell id="ml-engineer" value="ML Engineer" style="ellipse;whiteSpace=wrap;html=1;fillColor=#f5f5f5;strokeColor=#666666;" vertex="1" parent="1">
          <mxGeometry x="200" y="400" width="100" height="60" as="geometry" />
        </mxCell>
        <mxCell id="api-client" value="API Client" style="ellipse;whiteSpace=wrap;html=1;fillColor=#f5f5f5;strokeColor=#666666;" vertex="1" parent="1">
          <mxGeometry x="350" y="400" width="100" height="60" as="geometry" />
        </mxCell>
        <mxCell id="monitoring-team" value="Monitoring Team" style="ellipse;whiteSpace=wrap;html=1;fillColor=#f5f5f5;strokeColor=#666666;" vertex="1" parent="1">
          <mxGeometry x="500" y="400" width="100" height="60" as="geometry" />
        </mxCell>
        
        <!-- Data Flow Arrows -->
        <!-- Training Flow -->
        <mxCell id="flow1" value="1. Trigger Training" style="edgeStyle=orthogonalEdgeStyle;rounded=0;orthogonalLoop=1;jettySize=auto;html=1;strokeColor=#d79b00;strokeWidth=2;dashed=1;" edge="1" parent="1" source="airflow-scheduler" target="training-job">
          <mxGeometry relative="1" as="geometry" />
        </mxCell>
        <mxCell id="flow2" value="2. Log Metrics" style="edgeStyle=orthogonalEdgeStyle;rounded=0;orthogonalLoop=1;jettySize=auto;html=1;strokeColor=#d79b00;strokeWidth=2;" edge="1" parent="1" source="training-job" target="mlflow-tracking">
          <mxGeometry relative="1" as="geometry" />
        </mxCell>
        <mxCell id="flow3" value="3. Register Model" style="edgeStyle=orthogonalEdgeStyle;rounded=0;orthogonalLoop=1;jettySize=auto;html=1;strokeColor=#d79b00;strokeWidth=2;" edge="1" parent="1" source="training-job" target="mlflow-registry">
          <mxGeometry relative="1" as="geometry" />
        </mxCell>
        <mxCell id="flow4" value="4. Store Artifacts" style="edgeStyle=orthogonalEdgeStyle;rounded=0;orthogonalLoop=1;jettySize=auto;html=1;strokeColor=#d79b00;strokeWidth=2;" edge="1" parent="1" source="training-job" target="minio-artifacts">
          <mxGeometry relative="1" as="geometry" />
        </mxCell>
        
        <!-- Serving Flow -->
        <mxCell id="flow5" value="5. Load Model" style="edgeStyle=orthogonalEdgeStyle;rounded=0;orthogonalLoop=1;jettySize=auto;html=1;strokeColor=#2e7d32;strokeWidth=2;" edge="1" parent="1" source="serving-dev" target="mlflow-registry">
          <mxGeometry relative="1" as="geometry" />
        </mxCell>
        <mxCell id="flow6" value="6. Load Model" style="edgeStyle=orthogonalEdgeStyle;rounded=0;orthogonalLoop=1;jettySize=auto;html=1;strokeColor=#2e7d32;strokeWidth=2;" edge="1" parent="1" source="serving-prod" target="mlflow-registry">
          <mxGeometry relative="1" as="geometry" />
        </mxCell>
        <mxCell id="flow7" value="7. Predict Request" style="edgeStyle=orthogonalEdgeStyle;rounded=0;orthogonalLoop=1;jettySize=auto;html=1;strokeColor=#2e7d32;strokeWidth=2;" edge="1" parent="1" source="api-client" target="serving-prod">
          <mxGeometry relative="1" as="geometry" />
        </mxCell>
        
        <!-- Batch Flow -->
        <mxCell id="flow8" value="8. Scheduled Batch" style="edgeStyle=orthogonalEdgeStyle;rounded=0;orthogonalLoop=1;jettySize=auto;html=1;strokeColor=#1976d2;strokeWidth=2;" edge="1" parent="1" source="airflow-scheduler" target="batch-job">
          <mxGeometry relative="1" as="geometry" />
        </mxCell>
        <mxCell id="flow9" value="9. Read Data" style="edgeStyle=orthogonalEdgeStyle;rounded=0;orthogonalLoop=1;jettySize=auto;html=1;strokeColor=#1976d2;strokeWidth=2;" edge="1" parent="1" source="batch-job" target="minio-data">
          <mxGeometry relative="1" as="geometry" />
        </mxCell>
        <mxCell id="flow10" value="10. Load Model" style="edgeStyle=orthogonalEdgeStyle;rounded=0;orthogonalLoop=1;jettySize=auto;html=1;strokeColor=#1976d2;strokeWidth=2;" edge="1" parent="1" source="batch-job" target="mlflow-registry">
          <mxGeometry relative="1" as="geometry" />
        </mxCell>
        <mxCell id="flow11" value="11. Push Metrics" style="edgeStyle=orthogonalEdgeStyle;rounded=0;orthogonalLoop=1;jettySize=auto;html=1;strokeColor=#1976d2;strokeWidth=2;" edge="1" parent="1" source="batch-job" target="pushgateway">
          <mxGeometry relative="1" as="geometry" />
        </mxCell>
        
        <!-- Monitoring Flow -->
        <mxCell id="flow12" value="12. Scrape Metrics" style="edgeStyle=orthogonalEdgeStyle;rounded=0;orthogonalLoop=1;jettySize=auto;html=1;strokeColor=#7b1fa2;strokeWidth=2;" edge="1" parent="1" source="prometheus-server" target="serving-prod">
          <mxGeometry relative="1" as="geometry" />
        </mxCell>
        <mxCell id="flow13" value="13. Scrape Metrics" style="edgeStyle=orthogonalEdgeStyle;rounded=0;orthogonalLoop=1;jettySize=auto;html=1;strokeColor=#7b1fa2;strokeWidth=2;" edge="1" parent="1" source="prometheus-server" target="pushgateway">
          <mxGeometry relative="1" as="geometry" />
        </mxCell>
        <mxCell id="flow14" value="14. Query Metrics" style="edgeStyle=orthogonalEdgeStyle;rounded=0;orthogonalLoop=1;jettySize=auto;html=1;strokeColor=#7b1fa2;strokeWidth=2;" edge="1" parent="1" source="grafana-dash" target="prometheus-server">
          <mxGeometry relative="1" as="geometry" />
        </mxCell>
        <mxCell id="flow15" value="15. Send Alerts" style="edgeStyle=orthogonalEdgeStyle;rounded=0;orthogonalLoop=1;jettySize=auto;html=1;strokeColor=#7b1fa2;strokeWidth=2;" edge="1" parent="1" source="alertmanager" target="monitoring-team">
          <mxGeometry relative="1" as="geometry" />
        </mxCell>
        
        <!-- User Interactions -->
        <mxCell id="user1" value="DAG Management" style="edgeStyle=orthogonalEdgeStyle;rounded=0;orthogonalLoop=1;jettySize=auto;html=1;strokeColor=#666666;strokeWidth=1;" edge="1" parent="1" source="data-scientist" target="airflow-webserver">
          <mxGeometry relative="1" as="geometry" />
        </mxCell>
        <mxCell id="user2" value="Experiment Tracking" style="edgeStyle=orthogonalEdgeStyle;rounded=0;orthogonalLoop=1;jettySize=auto;html=1;strokeColor=#666666;strokeWidth=1;" edge="1" parent="1" source="ml-engineer" target="mlflow-server">
          <mxGeometry relative="1" as="geometry" />
        </mxCell>
        <mxCell id="user3" value="Model Registry" style="edgeStyle=orthogonalEdgeStyle;rounded=0;orthogonalLoop=1;jettySize=auto;html=1;strokeColor=#666666;strokeWidth=1;" edge="1" parent="1" source="ml-engineer" target="mlflow-registry">
          <mxGeometry relative="1" as="geometry" />
        </mxCell>
        <mxCell id="user4" value="Monitoring" style="edgeStyle=orthogonalEdgeStyle;rounded=0;orthogonalLoop=1;jettySize=auto;html=1;strokeColor=#666666;strokeWidth=1;" edge="1" parent="1" source="monitoring-team" target="grafana-dash">
          <mxGeometry relative="1" as="geometry" />
        </mxCell>
        
        <!-- Data Storage Connections -->
        <mxCell id="storage1" value="Metadata" style="edgeStyle=orthogonalEdgeStyle;rounded=0;orthogonalLoop=1;jettySize=auto;html=1;strokeColor=#82b366;strokeWidth=1;" edge="1" parent="1" source="mlflow-server" target="postgres-mlflow">
          <mxGeometry relative="1" as="geometry" />
        </mxCell>
        <mxCell id="storage2" value="Artifacts" style="edgeStyle=orthogonalEdgeStyle;rounded=0;orthogonalLoop=1;jettySize=auto;html=1;strokeColor=#82b366;strokeWidth=1;" edge="1" parent="1" source="mlflow-server" target="minio-artifacts">
          <mxGeometry relative="1" as="geometry" />
        </mxCell>
        
        <!-- Legend -->
        <mxCell id="legend-title" value="Data Flow Legend" style="text;html=1;strokeColor=none;fillColor=none;align=left;verticalAlign=middle;whiteSpace=wrap;rounded=0;fontSize=14;fontStyle=1;" vertex="1" parent="1">
          <mxGeometry x="1050" y="100" width="150" height="30" as="geometry" />
        </mxCell>
        <mxCell id="legend1" value="Training Pipeline" style="text;html=1;strokeColor=none;fillColor=none;align=left;verticalAlign=middle;whiteSpace=wrap;rounded=0;fontSize=12;" vertex="1" parent="1">
          <mxGeometry x="1050" y="130" width="150" height="20" as="geometry" />
        </mxCell>
        <mxCell id="legend1-line" value="" style="endArrow=classic;html=1;strokeColor=#d79b00;strokeWidth=2;" edge="1" parent="1">
          <mxGeometry width="50" height="50" relative="1" as="geometry">
            <mxPoint x="1050" y="140" as="sourcePoint" />
            <mxPoint x="1100" y="140" as="targetPoint" />
          </mxGeometry>
        </mxCell>
        <mxCell id="legend2" value="Serving Pipeline" style="text;html=1;strokeColor=none;fillColor=none;align=left;verticalAlign=middle;whiteSpace=wrap;rounded=0;fontSize=12;" vertex="1" parent="1">
          <mxGeometry x="1050" y="160" width="150" height="20" as="geometry" />
        </mxCell>
        <mxCell id="legend2-line" value="" style="endArrow=classic;html=1;strokeColor=#2e7d32;strokeWidth=2;" edge="1" parent="1">
          <mxGeometry width="50" height="50" relative="1" as="geometry">
            <mxPoint x="1050" y="170" as="sourcePoint" />
            <mxPoint x="1100" y="170" as="targetPoint" />
          </mxGeometry>
        </mxCell>
        <mxCell id="legend3" value="Batch Pipeline" style="text;html=1;strokeColor=none;fillColor=none;align=left;verticalAlign=middle;whiteSpace=wrap;rounded=0;fontSize=12;" vertex="1" parent="1">
          <mxGeometry x="1050" y="190" width="150" height="20" as="geometry" />
        </mxCell>
        <mxCell id="legend3-line" value="" style="endArrow=classic;html=1;strokeColor=#1976d2;strokeWidth=2;" edge="1" parent="1">
          <mxGeometry width="50" height="50" relative="1" as="geometry">
            <mxPoint x="1050" y="200" as="sourcePoint" />
            <mxPoint x="1100" y="200" as="targetPoint" />
          </mxGeometry>
        </mxCell>
        <mxCell id="legend4" value="Monitoring" style="text;html=1;strokeColor=none;fillColor=none;align=left;verticalAlign=middle;whiteSpace=wrap;rounded=0;fontSize=12;" vertex="1" parent="1">
          <mxGeometry x="1050" y="220" width="150" height="20" as="geometry" />
        </mxCell>
        <mxCell id="legend4-line" value="" style="endArrow=classic;html=1;strokeColor=#7b1fa2;strokeWidth=2;" edge="1" parent="1">
          <mxGeometry width="50" height="50" relative="1" as="geometry">
            <mxPoint x="1050" y="230" as="sourcePoint" />
            <mxPoint x="1100" y="230" as="targetPoint" />
          </mxGeometry>
        </mxCell>
        
      </root>
    </mxGraphModel>
  </diagram>
</mxfile>